<svg width="51" height="49" viewBox="0 0 51 49" fill="none" xmlns="http://www.w3.org/2000/svg">
<g clip-path="url(#clip0_1292_5838)">
<path d="M50.3035 9.05078H25.3035V48.3618H50.3035V9.05078Z" fill="#8E8F90"/>
<path d="M41.3923 13.8398H38.5613V17.0235H41.3923V13.8398Z" fill="#C7DDFD"/>
<path d="M41.3923 19.8262H38.5613V23.0098H41.3923V19.8262Z" fill="#C7DDFD"/>
<path d="M41.3923 25.7129H38.5613V28.8966H41.3923V25.7129Z" fill="white"/>
<path d="M41.3923 31.6016H38.5613V34.7852H41.3923V31.6016Z" fill="white"/>
<path d="M41.3923 37.5957H38.5613V40.7794H41.3923V37.5957Z" fill="white"/>
<path d="M41.3923 42.9238H38.5613V46.1075H41.3923V42.9238Z" fill="white"/>
<path d="M25.3035 16.1523H0.303467V46.9801H25.3035V16.1523Z" fill="#AFAFAF"/>
<path d="M39.3279 0.958984H14.3279V48.959H39.3279V0.958984Z" fill="#646569"/>
<path d="M21.1919 7.21875H18.1257V10.6669H21.1919V7.21875Z" fill="white"/>
<path d="M28.0823 7.21875H25.0161V10.6669H28.0823V7.21875Z" fill="white"/>
<path d="M34.9725 7.21875H31.9062V10.6669H34.9725V7.21875Z" fill="white"/>
<path d="M21.1919 13.6934H18.1257V17.1415H21.1919V13.6934Z" fill="white"/>
<path d="M28.0823 13.6934H25.0161V17.1415H28.0823V13.6934Z" fill="white"/>
<path d="M34.9725 13.6934H31.9062V17.1415H34.9725V13.6934Z" fill="white"/>
<path d="M21.1919 20.168H18.1257V23.6161H21.1919V20.168Z" fill="white"/>
<path d="M28.0823 20.168H25.0161V23.6161H28.0823V20.168Z" fill="white"/>
<path d="M34.9725 20.168H31.9062V23.6161H34.9725V20.168Z" fill="white"/>
<path d="M21.1919 26.5469H18.1257V29.995H21.1919V26.5469Z" fill="white"/>
<path d="M28.0823 26.5469H25.0161V29.995H28.0823V26.5469Z" fill="white"/>
<path d="M34.9725 26.5469H31.9062V29.995H34.9725V26.5469Z" fill="white"/>
<path d="M21.4707 32.9238H18.4045V36.372H21.4707V32.9238Z" fill="#A3D541"/>
<path d="M28.3609 32.9238H25.2947V36.372H28.3609V32.9238Z" fill="#A3D541"/>
<path d="M35.2513 32.9238H32.1851V36.372H35.2513V32.9238Z" fill="white"/>
<path d="M21.4707 39.5645H18.4045V43.0126H21.4707V39.5645Z" fill="#A3D541"/>
<path d="M28.3609 39.5645H25.2947V43.0126H28.3609V39.5645Z" fill="#A3D541"/>
<path d="M35.2513 39.5645H32.1851V43.0126H35.2513V39.5645Z" fill="white"/>
<path d="M47.76 13.8398H44.929V17.0235H47.76V13.8398Z" fill="#C7DDFD"/>
<path d="M47.76 19.8262H44.929V23.0098H47.76V19.8262Z" fill="#C7DDFD"/>
<path d="M47.76 25.7129H44.929V28.8966H47.76V25.7129Z" fill="white"/>
<path d="M47.76 31.6016H44.929V34.7852H47.76V31.6016Z" fill="white"/>
<path d="M47.76 37.5957H44.929V40.7794H47.76V37.5957Z" fill="white"/>
<path d="M47.76 42.9238H44.929V46.1075H47.76V42.9238Z" fill="white"/>
<path d="M6.44454 20.6875H3.61353V23.8712H6.44454V20.6875Z" fill="white"/>
<path d="M12.8034 20.6875H9.97241V23.8712H12.8034V20.6875Z" fill="white"/>
<path d="M6.44454 26.791H3.61353V29.9747H6.44454V26.791Z" fill="white"/>
<path d="M12.8034 26.791H9.97241V29.9747H12.8034V26.791Z" fill="white"/>
<path d="M6.44454 33.0508H3.61353V36.2345H6.44454V33.0508Z" fill="white"/>
<path d="M12.8034 33.0508H9.97241V36.2345H12.8034V33.0508Z" fill="white"/>
<path d="M6.44454 39.3008H3.61353V42.4845H6.44454V39.3008Z" fill="white"/>
<path d="M12.8034 39.3008H9.97241V42.4845H12.8034V39.3008Z" fill="white"/>
</g>
<defs>
<clipPath id="clip0_1292_5838">
<rect width="50" height="48" fill="white" transform="translate(0.303467 0.958984)"/>
</clipPath>
</defs>
</svg>
