<svg width="61.98" height="70" viewBox="0 0 93 112" fill="none" xmlns="http://www.w3.org/2000/svg">
<path d="M11.2214 17.1439C16.0189 9.98833 26.9963 4.37767 38.7868 4.37767C42.0393 4.37767 47.7313 5.67869 47.7313 9.01256C47.7313 11.6146 46.1863 14.2166 44.2348 15.7616C42.2833 17.2253 39.0307 19.2581 35.5342 19.2581C33.8266 19.2581 32.7695 18.445 32.7695 16.6561C32.7695 14.1353 36.1034 9.98833 45.0479 11.6959C45.8611 10.9641 46.2676 9.41913 45.8611 8.11811C33.1761 7.38628 28.4599 13.8101 28.4599 17.4692C28.4599 19.6647 30.5741 23.649 35.7781 23.649C45.4545 23.649 53.1793 15.1111 53.1793 8.36205C53.1793 2.26351 44.1535 0.474609 37.4044 0.474609C27.7281 0.474609 12.4411 7.22366 7.56226 19.9899L11.2214 17.1439Z" fill="#67B2E8"/>
<path d="M62.529 29.9916C62.6916 29.1784 62.8543 28.284 62.8543 27.4708C62.8543 22.1041 58.6259 16.8187 53.5032 14.9485C54.3976 13.0783 55.0481 11.2081 54.9668 9.50049C61.9598 11.5333 71.3922 16.3308 71.3922 25.8446C71.3922 28.3653 69.278 35.033 67.977 36.1714C67.5705 34.6265 66.7573 35.9275 65.5376 37.4724C65.0497 38.1229 65.5376 34.4638 65.0497 34.7078C64.2366 35.1143 62.529 38.4482 61.4719 38.6921C62.0411 37.1472 64.074 32.3497 64.074 29.0971C64.074 28.9345 63.9927 28.9345 63.83 28.9345C63.4235 28.9345 63.0169 29.3411 62.7729 29.6663" fill="#67B2E8"/>
<path d="M48.5451 33.2443C46.6749 33.2443 44.7234 31.5367 44.7234 29.6664C44.7234 28.2841 45.9431 27.8775 47.2441 27.8775C49.1956 27.8775 52.5295 29.3412 52.5295 35.1958C52.5295 37.066 52.2856 38.7736 51.879 40.3186C52.3669 39.9933 52.9361 39.668 53.424 39.2615C55.2942 37.9605 56.6765 35.4397 57.1644 33.1629C57.4896 31.7806 57.6523 30.6422 57.6523 30.1543C57.6523 28.0402 56.5952 22.0229 52.8548 22.0229C47.3254 22.0229 42.1213 27.471 42.1213 31.6993C42.1213 34.22 44.6421 36.1716 46.5936 36.1716C47.3254 36.1716 50.4967 33.2443 48.5451 33.2443Z" fill="#95D600"/>
<path d="M61.1495 41.9448C58.0595 41.6196 54.2378 44.059 53.8312 43.9777C54.2378 43.1645 54.7257 41.9448 55.2136 40.5625C53.6686 41.7009 52.0423 42.514 50.66 43.7337C49.2776 46.905 47.6514 49.3444 47.6514 52.1091C51.3105 47.5555 52.8555 47.6368 54.8883 46.8237C57.9782 45.0348 59.2792 44.3843 61.0681 42.2701C61.2308 42.1075 61.3934 41.9448 61.1495 41.9448Z" fill="#95D600"/>
<path d="M28.8672 31.5366C29.2738 30.4795 29.6804 29.3411 29.6804 28.2027C29.5991 28.1214 29.5177 28.0401 29.4364 27.8774C26.5091 28.6093 23.6632 30.2355 21.4677 33.0002C21.2237 35.3583 22.3621 37.6351 23.7445 39.5866C24.4763 36.2528 26.4278 33.1628 28.8672 31.5366Z" fill="#95D600"/>
<path d="M29.1906 51.6211C25.6941 51.6211 23.8239 47.7993 23.58 44.872C23.4173 42.8392 22.7668 41.9447 21.6284 40.3998C20.9779 39.5053 20.4087 38.4482 20.0021 37.3912C19.8395 36.9033 19.6769 36.3341 19.5143 35.8462C18.1319 38.6109 17.3188 42.026 17.4001 46.2544C17.4814 50.1574 21.9537 54.2231 26.1007 54.2231C28.3775 54.2231 30.8982 53.8979 31.2235 51.5398C30.6543 51.5398 29.9224 51.6211 29.1906 51.6211Z" fill="#95D600"/>
<path d="M32.769 27.4712H31.7932C31.8746 27.5525 31.8746 27.6338 31.9559 27.7151C32.6877 28.0404 33.2569 28.6096 33.8261 29.3414C33.9074 29.504 34.07 29.5854 34.1513 29.748C34.7205 30.2359 35.1271 30.8051 35.4524 31.3743C35.6963 31.6182 35.8589 31.9435 36.0216 32.2687C36.0216 32.35 36.1029 32.35 36.1029 32.4313C36.1842 32.594 36.2655 32.7566 36.3468 32.8379C36.4281 32.9192 36.4281 33.0818 36.4281 33.1632C36.5908 33.7324 36.6721 34.3829 36.6721 35.0334C36.6721 37.4728 35.2897 41.1319 32.5251 44.0592C32.1998 44.3845 31.9559 44.7097 31.6306 45.035C31.8746 46.4986 32.2811 47.881 33.0943 49.182H33.1756C39.9246 49.182 41.5509 40.0748 41.5509 36.9849C41.6322 31.6182 37.7292 27.4712 32.769 27.4712Z" fill="#95D600"/>
<path d="M73.4245 39.5869C73.8311 38.4485 76.0266 37.798 76.0266 35.2773C76.0266 34.4641 75.0508 37.2288 75.0508 35.4399C75.0508 34.3015 76.1079 33.407 76.1079 32.35C76.1079 32.1873 76.1079 32.106 76.0266 31.9434V31.7808C74.2376 32.6752 70.4972 41.7824 67.6512 41.7824C67.326 41.7824 67.2447 41.701 67.2447 41.3758C67.2447 40.8066 67.7325 40.7253 67.7325 39.9935C67.7325 39.4243 67.4886 39.9935 67.326 39.5869C67.2447 39.4243 67.2447 39.3429 67.082 39.2616H67.0007C66.025 39.2616 65.6184 41.1318 65.2118 41.945C64.3174 43.4899 63.5042 45.6041 62.7724 45.6041C62.4471 45.6041 61.7966 46.1733 61.7966 45.6041C61.7966 45.5228 61.8779 45.4415 61.8779 45.4415V45.3602H61.634C59.4385 45.3602 55.5355 51.784 53.9092 53.5729C51.6324 56.0936 50.0874 57.8825 49.0304 59.3461C49.3556 56.5002 49.7622 55.6057 50.2501 54.9552C50.9819 54.3047 51.5511 54.4673 51.6324 54.1421V54.0607C51.6324 53.8168 51.3885 53.9794 51.1445 53.8168V53.7355C51.1445 53.4915 51.8763 53.4102 52.1203 53.085C52.2016 52.6784 51.7137 52.6784 51.6324 52.6784C51.6324 52.6784 51.3885 53.0037 50.3314 53.1663C48.3799 53.7355 47.4041 55.2804 46.5096 57.0694C45.9404 56.6628 46.1844 55.8496 45.6152 55.1991C44.802 54.386 44.4768 53.9794 44.4768 52.841C44.4768 52.1092 44.6394 51.3774 44.7207 50.7269C44.8834 50.1577 44.9647 49.6698 44.9647 49.2632C44.9647 48.8567 44.9647 48.7753 44.3955 48.7753C43.8263 48.7753 43.8263 49.3445 43.745 50.5642H43.6637C43.1758 50.5642 43.0945 49.7511 42.7692 49.7511C40.899 49.7511 42.4439 53.1663 42.4439 54.0607C42.4439 54.1421 42.2813 54.2234 42.1187 54.2234H42.0374C41.7934 53.9794 41.7121 54.2234 41.7121 54.5486C41.7121 54.7113 42.2813 55.3618 42.2813 55.931C42.2813 56.988 40.3298 57.7199 40.3298 56.1749V55.4431C40.3298 54.8739 40.0858 54.7113 39.8419 54.7113C39.5166 54.7113 39.8419 55.1991 39.5166 55.3618H39.4353C39.1914 55.3618 39.1101 55.1991 38.8661 55.0365H38.7848C38.5409 55.0365 38.3783 55.3618 38.3783 55.6057C38.3783 55.8496 38.4596 56.0936 38.5409 56.2562C38.5409 56.5815 39.1101 57.3133 39.1101 57.9638C38.7848 58.7769 39.4353 59.1835 37.7277 59.1835C36.3454 59.1835 36.2641 58.2077 35.1257 57.9638H35.0444C34.8818 57.9638 34.6378 58.4517 34.6378 58.6143C34.6378 59.3461 36.6707 61.2164 38.5409 61.2164C39.8419 61.2164 41.1429 60.7285 42.4439 60.5658C42.7692 60.4845 43.0131 60.4845 43.3384 60.4845C44.1515 60.4845 44.802 63.7371 44.802 65.4447C44.802 68.4533 43.6637 71.8685 42.6879 74.6331C42.0374 75.6902 41.3056 76.8286 40.4111 78.1296C38.2156 81.5448 35.8575 83.415 32.7676 85.7731C31.9545 86.9928 31.304 94.555 31.304 96.5879C31.304 101.141 33.0929 105.695 33.906 105.695C34.1499 105.695 34.6378 105.858 34.6378 105.37C34.6378 104.963 36.0202 106.264 36.508 106.264C36.752 106.264 37.0772 106.183 37.0772 105.939C37.0772 105.695 36.752 105.37 36.752 105.126C36.752 104.313 39.6793 108.866 40.7364 108.866C41.3056 108.704 41.2242 107.565 41.7934 107.647C42.2813 107.728 42.4439 108.704 43.5823 108.704C43.9076 108.704 44.3142 108.378 44.0702 108.216C43.0131 107.321 43.0945 106.996 42.6066 106.508C43.0945 106.508 43.3384 106.833 43.745 106.833C47.1601 106.833 43.0945 106.508 41.6308 103.256C43.4197 104.313 51.8763 104.801 54.5597 107.565C54.7223 107.728 55.6981 107.809 55.6981 107.484C55.6981 107.403 55.0476 106.752 55.0476 106.427C55.0476 106.02 59.1946 105.939 59.5198 105.939C61.4714 105.939 63.4229 106.183 65.2931 106.752H65.3744C57.3244 99.6778 41.5495 104.557 41.5495 90.4893C41.5495 84.1469 50.0874 84.3908 50.0874 75.2023V73.6574C50.0874 66.827 55.0476 64.225 58.1375 62.2734C59.1946 61.6229 62.3658 62.1108 62.3658 60.4845V60.4032C62.2032 60.3219 62.0406 60.2406 61.8779 60.2406C61.4714 60.2406 61.0648 60.4845 60.6582 60.4845C60.4956 60.4845 60.1704 60.4032 60.1704 60.2406C60.1704 59.6714 62.4471 58.6143 62.7724 58.2077V58.1264C62.7724 58.0451 62.6098 57.8825 62.4471 57.8825C62.2032 57.8825 61.9593 58.0451 61.634 58.0451C61.3901 58.0451 61.2274 57.9638 61.2274 57.6385V57.5572C61.8779 57.1507 62.4471 56.7441 62.8537 56.0936V56.0123C62.8537 55.7683 62.6098 55.687 62.6098 55.3618C62.6098 55.0365 63.0163 54.7926 63.0163 54.4673C63.0163 54.1421 62.6911 54.0607 62.3658 54.0607C62.3658 54.0607 61.0648 56.3375 60.4143 56.9067C58.5441 58.6956 55.1289 61.5416 53.1774 62.1921C55.7794 57.232 54.5597 56.0936 61.5527 52.5971C61.634 52.5158 61.7966 52.4345 61.8779 52.3531C62.2032 52.1905 62.8537 52.0279 62.8537 51.6213C62.8537 51.54 62.8537 51.4587 62.7724 51.3774L62.6911 51.2961V51.2148C62.6911 51.2148 63.0163 50.5642 63.0163 50.4829C62.935 50.4829 62.8537 50.4016 62.8537 50.4016C62.6911 50.4016 62.5285 50.4829 62.3658 50.5642C61.0648 50.9708 60.089 52.1905 58.6254 52.1905C59.6012 49.9137 62.6911 49.7511 64.3174 48.2875L65.3744 47.2304C67.0007 43.5713 75.376 40.644 75.376 40.644C75.376 40.3187 75.1321 40.2374 74.8068 40.2374C74.319 40.2374 73.8311 40.4813 73.3432 40.4813C73.0993 40.4813 72.774 40.4813 72.774 40.1561C72.774 40.0748 72.8553 39.9121 72.9366 39.8308C73.2619 39.9121 73.3432 39.7495 73.4245 39.5869Z" fill="#646569"/>
<path d="M76.5154 20.6403C75.2957 16.9812 70.1729 13.6473 68.6279 13.0781C71.23 15.5175 74.6451 21.3721 74.3199 25.6818C74.1573 27.7959 73.9946 28.6904 73.6694 30.154C76.1088 27.7146 77.6538 23.7302 76.5154 20.6403Z" fill="#67B2E8"/>
<path d="M28.7032 71.2995C30.6547 71.2995 34.4764 68.3722 34.4764 65.5262C34.4764 63.412 33.0128 62.5176 32.1183 62.5176C28.9471 62.5176 26.7516 66.6646 26.589 67.3964C25.9385 69.5106 26.8329 71.2995 28.7032 71.2995Z" fill="#646569"/>
<path d="M32.3655 79.4302C38.464 76.0963 42.3671 69.1033 41.9605 62.2729C41.0661 65.1189 39.1145 69.9164 34.1544 72.5998C34.1544 72.5185 31.7963 78.3731 32.3655 79.4302Z" fill="#646569"/>
<path d="M23.826 75.7715C22.1998 76.2594 20.0856 77.5604 18.5406 79.5119C16.4265 82.1953 15.0442 85.9357 14.8002 89.2696C14.7189 90.0827 14.8002 90.9772 14.9628 91.7903C15.6947 90.408 15.776 87.3994 21.0614 83.2524C22.4437 82.1953 23.826 77.3978 23.826 75.7715Z" fill="#646569"/>
<path d="M22.9312 111.062C22.9312 110.736 22.1994 109.273 22.1181 108.541C21.5489 103.337 22.9312 96.3439 24.2322 94.1484V93.9858C24.3136 94.6363 24.5575 103.662 28.054 107.647C28.7858 108.46 29.9242 109.11 30.9813 109.598C31.3878 109.679 31.7944 110.086 31.7944 109.435C31.7944 108.704 30.9813 108.053 30.656 107.403C29.1111 104.313 28.7858 97.5636 28.7858 92.1156V89.2696C28.7858 80.9756 31.1439 76.5033 32.4449 73.0068C32.3636 73.3321 26.4277 75.2836 26.1838 75.121C23.9883 86.017 18.215 83.8216 18.215 99.4338C18.215 102.686 17.6458 106.589 20.8984 111.143C21.2236 111.55 21.8741 111.956 22.1994 111.956C22.606 111.956 22.9312 111.387 22.9312 111.062Z" fill="#646569"/>
<path d="M29.273 24.299C29.273 24.3803 29.1103 24.4616 29.029 24.4616C27.4841 25.0308 26.1017 25.356 24.3128 25.7626C5.85459 27.7141 5.12277 58.2068 28.2159 59.1013C26.5896 60.7275 25.9391 61.1341 25.0447 62.8417C9.35109 62.8417 0 54.3038 0 42.4319C0 34.3006 7.80612 22.2661 22.036 22.2661C24.0689 22.2661 27.728 22.9979 29.273 24.299Z" fill="#FFC627"/>
<path d="M54.2361 70.2418C60.7412 71.7867 72.7756 62.1917 73.3448 54.2229C74.8898 53.6537 76.9226 52.1901 77.7358 51.377C78.7115 63.7367 61.6356 75.6085 54.2361 70.2418Z" fill="#95D600"/>
<path d="M79.5255 4.13419C89.8524 7.79331 92.3731 15.6807 92.3731 24.3C92.3731 45.3603 69.6865 54.0609 65.2956 52.3533C66.1901 51.6214 66.9219 50.8083 67.4911 49.8325C81.8836 44.7098 86.1932 35.44 86.1932 25.3571C86.1932 14.7863 73.8335 8.19988 65.8648 8.19988C64.7264 8.19988 63.6693 8.28119 62.6122 8.28119C60.742 6.89886 59.1971 6.49229 57.6521 6.32966C63.9133 3.07711 71.3128 1.77609 79.5255 4.13419Z" fill="#95D600"/>
</svg>
