<svg width="61" height="51" viewBox="0 0 61 51" fill="none" xmlns="http://www.w3.org/2000/svg">
<g clip-path="url(#clip0_1292_5880)">
<path d="M58.3651 47.4922H0.303467V50.3622H58.3651V47.4922Z" fill="#DDDDDD"/>
<path d="M26.2615 14.9512H21.5005V16.0312H26.2615V14.9512Z" fill="#DDDDDD"/>
<path d="M7.72647 26.5723H4.81445V27.3223H7.72647V26.5723Z" fill="#DDDDDD"/>
<path d="M24.3319 36.6602H3.04565V48.0902H24.3319V36.6602Z" fill="#DDDDDD"/>
<path d="M8.3962 36.6607H3.88525L4.96609 27.9707H7.40468L8.3962 36.6607Z" fill="#DDDDDD"/>
<path d="M54.6492 49.251H18.2937L20.2678 32.031L21.9739 16.791H25.806L27.3692 32.031H29.2897L30.9869 20.851H34.8279L36.3911 32.031H37.3469L39.053 20.851H42.885L44.4482 32.031H45.6184L47.3245 20.851H51.1566L52.7198 32.031L54.6492 49.251Z" fill="#DDDDDD"/>
<path d="M25.9489 35.2617H4.6626V46.6917H25.9489V35.2617Z" fill="#AFAFAF"/>
<path d="M9.69161 38.0312H7.67285V40.2913H9.69161V38.0312Z" fill="white"/>
<path d="M13.7739 38.0312H11.7551V40.2913H13.7739V38.0312Z" fill="#C7DDFD"/>
<path d="M9.69161 41.6719H7.67285V43.9319H9.69161V41.6719Z" fill="white"/>
<path d="M13.7739 41.6719H11.7551V43.9319H13.7739V41.6719Z" fill="white"/>
<path d="M17.8559 38.0312H15.8372V40.2913H17.8559V38.0312Z" fill="#C7DDFD"/>
<path d="M17.8559 41.6719H15.8372V43.9319H17.8559V41.6719Z" fill="#C7DDFD"/>
<path d="M56.4534 46.8213H20.0979L22.072 29.6013L23.7781 14.3613H27.6102L29.1734 29.6013H31.0939L32.7911 18.4213H36.6321L38.1953 29.6013H39.1511L40.8572 18.4213H44.6892L46.2524 29.6013H47.4226L49.1287 18.4213H52.9608L54.524 29.6013L56.4534 46.8213Z" fill="#646569"/>
<path d="M32.1658 39.6211H28.2266V44.0311H32.1658V39.6211Z" fill="white"/>
<path d="M32.1658 33.9219H28.2266V38.3319H32.1658V33.9219Z" fill="white"/>
<path d="M40.4107 33.9414H36.4714V38.3514H40.4107V33.9414Z" fill="#A3D541"/>
<path d="M40.4107 39.6211H36.4714V44.0311H40.4107V39.6211Z" fill="white"/>
<path d="M48.6912 34.0117H44.752V38.4217H48.6912V34.0117Z" fill="#A3D541"/>
<path d="M48.6912 39.7422H44.752V44.1522H48.6912V39.7422Z" fill="#A3D541"/>
<path d="M60.3036 46.7012H2.24194V49.5712H60.3036V46.7012Z" fill="#646569"/>
<path d="M10.013 35.2623H5.49316L6.58294 26.5723H9.02153L10.013 35.2623Z" fill="#AFAFAF"/>
<path d="M9.27188 25.4121H6.35986V26.1621H9.27188V25.4121Z" fill="#AFAFAF"/>
<path d="M28.0213 12.8516H23.2603V13.9316H28.0213V12.8516Z" fill="#AFAFAF"/>
<path d="M32.8181 0.560781C29.3076 3.86078 28.3875 5.27078 28.3875 5.89078C28.3875 5.95078 28.3875 6.40078 28.3428 7.03078C28.2893 7.62078 28.2089 8.10078 28.1821 8.24078C27.8694 9.84078 25.5112 11.4408 25.4219 11.3508C25.3862 11.3108 25.7077 11.0008 26.1276 10.5008C27.2263 9.21078 29.1736 6.48078 32.8181 0.550781V0.560781Z" fill="#DDDDDD"/>
<path d="M32.4607 0.361562C29.1735 3.82156 28.3428 5.27156 28.3875 5.89156C28.3875 5.95156 28.4232 6.40156 28.4143 7.03156C28.4053 7.63156 28.3517 8.11156 28.3339 8.25156C28.1195 9.86156 25.8774 11.5716 25.7881 11.4816C25.7524 11.4416 26.0471 11.1216 26.4402 10.6016C27.4585 9.26156 29.2182 6.44156 32.4607 0.351562V0.361562Z" fill="#AFAFAF"/>
</g>
<defs>
<clipPath id="clip0_1292_5880">
<rect width="60" height="50" fill="white" transform="translate(0.303467 0.361328)"/>
</clipPath>
</defs>
</svg>
