<svg width="15" height="14" viewBox="0 0 15 14" fill="none" xmlns="http://www.w3.org/2000/svg">
<path d="M6.53369 1.0332C6.22119 1.3457 6.25244 1.81445 6.53369 2.12695L10.3149 5.68945H1.34619C0.908691 5.68945 0.596191 6.0332 0.596191 6.43945V7.43945C0.596191 7.87695 0.908691 8.18945 1.34619 8.18945H10.3149L6.53369 11.7832C6.25244 12.0957 6.25244 12.5645 6.53369 12.877L7.22119 13.5645C7.53369 13.8457 8.00244 13.8457 8.28369 13.5645L14.3774 7.4707C14.6587 7.18945 14.6587 6.7207 14.3774 6.4082L8.28369 0.345703C8.00244 0.0644531 7.53369 0.0644531 7.22119 0.345703L6.53369 1.0332Z" fill="white"/>
</svg>
