<svg width="56" height="43" viewBox="0 0 56 43" fill="none" xmlns="http://www.w3.org/2000/svg">
<g clip-path="url(#clip0_1292_5908)">
<path d="M4.59839 42.0938H51.9754" stroke="#646569" stroke-miterlimit="10"/>
<path d="M13.4645 32.502H11.1875C10.3066 32.502 9.59253 33.2161 9.59253 34.097V40.466C9.59253 41.3469 10.3066 42.061 11.1875 42.061H13.4645C14.3454 42.061 15.0595 41.3469 15.0595 40.466V34.097C15.0595 33.2161 14.3454 32.502 13.4645 32.502Z" fill="#646569"/>
<path d="M45.4194 32.5352H43.1424C42.2615 32.5352 41.5474 33.2493 41.5474 34.1302V40.4992C41.5474 41.3801 42.2615 42.0942 43.1424 42.0942H45.4194C46.3003 42.0942 47.0144 41.3801 47.0144 40.4992V34.1302C47.0144 33.2493 46.3003 32.5352 45.4194 32.5352Z" fill="#646569"/>
<path d="M52.5035 4.50781H50.4685C49.7334 4.50781 49.1375 5.10372 49.1375 5.83881V17.0038C49.1375 17.7389 49.7334 18.3348 50.4685 18.3348H52.5035C53.2385 18.3348 53.8345 17.7389 53.8345 17.0038V5.83881C53.8345 5.10372 53.2385 4.50781 52.5035 4.50781Z" stroke="#C7DDFD" stroke-miterlimit="10"/>
<path d="M6.1055 4.72656H4.0705C3.33541 4.72656 2.7395 5.32247 2.7395 6.05756V17.2226C2.7395 17.9577 3.33541 18.5536 4.0705 18.5536H6.1055C6.84059 18.5536 7.4365 17.9577 7.4365 17.2226V6.05756C7.4365 5.32247 6.84059 4.72656 6.1055 4.72656Z" stroke="#C7DDFD" stroke-miterlimit="10"/>
<path d="M48.3234 0.371094H8.27235C6.80217 0.371094 5.61035 1.56291 5.61035 3.03309V34.0751C5.61035 35.5453 6.80217 36.7371 8.27235 36.7371H48.3234C49.7935 36.7371 50.9854 35.5453 50.9854 34.0751V3.03309C50.9854 1.56291 49.7935 0.371094 48.3234 0.371094Z" fill="#646569"/>
<path d="M46.4755 6.66406H10.0985C8.62834 6.66406 7.43652 7.85588 7.43652 9.32606V20.7991C7.43652 22.2692 8.62834 23.4611 10.0985 23.4611H46.4755C47.9457 23.4611 49.1375 22.2692 49.1375 20.7991V9.32606C49.1375 7.85588 47.9457 6.66406 46.4755 6.66406Z" fill="#EBF3FF"/>
<path d="M17.7654 24.209C17.7654 24.209 34.4524 10.624 39.6224 9.50195" stroke="#646569" stroke-miterlimit="10"/>
<path d="M14.3224 31.5668C15.5921 31.5668 16.6214 30.5375 16.6214 29.2678C16.6214 27.998 15.5921 26.9688 14.3224 26.9688C13.0527 26.9688 12.0234 27.998 12.0234 29.2678C12.0234 30.5375 13.0527 31.5668 14.3224 31.5668Z" fill="white"/>
<path d="M41.5036 31.5882C42.7733 31.5882 43.8026 30.5589 43.8026 29.2892C43.8026 28.0195 42.7733 26.9902 41.5036 26.9902C40.2339 26.9902 39.2046 28.0195 39.2046 29.2892C39.2046 30.5589 40.2339 31.5882 41.5036 31.5882Z" fill="white"/>
<path d="M8.91052 29.9832C9.72459 29.9832 10.3845 29.3232 10.3845 28.5092C10.3845 27.6951 9.72459 27.0352 8.91052 27.0352C8.09646 27.0352 7.43652 27.6951 7.43652 28.5092C7.43652 29.3232 8.09646 29.9832 8.91052 29.9832Z" fill="#A3D541"/>
<path d="M46.7614 29.9832C47.5754 29.9832 48.2354 29.3232 48.2354 28.5092C48.2354 27.6951 47.5754 27.0352 46.7614 27.0352C45.9473 27.0352 45.2874 27.6951 45.2874 28.5092C45.2874 29.3232 45.9473 29.9832 46.7614 29.9832Z" fill="#A3D541"/>
<path d="M34.8155 33.9978C34.8155 34.6248 31.8895 35.9668 28.2925 35.9668C24.6955 35.9668 21.7695 34.6908 21.7695 34.0748C21.7695 33.4588 24.6955 33.7118 28.2925 33.7118C31.8895 33.7118 34.8155 33.3818 34.8155 34.0088V33.9978Z" fill="#F1F1F1"/>
<path d="M39.9524 1.70117H16.6214C16.0322 1.70117 15.5544 2.17888 15.5544 2.76817V3.98917C15.5544 4.57846 16.0322 5.05617 16.6214 5.05617H39.9524C40.5417 5.05617 41.0194 4.57846 41.0194 3.98917V2.76817C41.0194 2.17888 40.5417 1.70117 39.9524 1.70117Z" fill="white"/>
<path d="M10.9234 31.1383C11.379 31.1383 11.7484 30.7689 11.7484 30.3133C11.7484 29.8576 11.379 29.4883 10.9234 29.4883C10.4678 29.4883 10.0984 29.8576 10.0984 30.3133C10.0984 30.7689 10.4678 31.1383 10.9234 31.1383Z" fill="#A3D541"/>
<path d="M44.7925 31.2809C45.2482 31.2809 45.6175 30.9115 45.6175 30.4559C45.6175 30.0002 45.2482 29.6309 44.7925 29.6309C44.3369 29.6309 43.9675 30.0002 43.9675 30.4559C43.9675 30.9115 44.3369 31.2809 44.7925 31.2809Z" fill="#A3D541"/>
<path d="M3.41047 6.66406H2.13447C1.39938 6.66406 0.803467 7.25997 0.803467 7.99506V13.7371C0.803467 14.4722 1.39938 15.0681 2.13447 15.0681H3.41047C4.14556 15.0681 4.74147 14.4722 4.74147 13.7371V7.99506C4.74147 7.25997 4.14556 6.66406 3.41047 6.66406Z" fill="#646569"/>
<path d="M54.4725 6.66406H53.1965C52.4614 6.66406 51.8655 7.25997 51.8655 7.99506V13.7371C51.8655 14.4722 52.4614 15.0681 53.1965 15.0681H54.4725C55.2076 15.0681 55.8035 14.4722 55.8035 13.7371V7.99506C55.8035 7.25997 55.2076 6.66406 54.4725 6.66406Z" fill="#646569"/>
</g>
<defs>
<clipPath id="clip0_1292_5908">
<rect width="55" height="42.273" fill="white" transform="translate(0.803467 0.371094)"/>
</clipPath>
</defs>
</svg>
