<svg width="46" height="35" viewBox="0 0 46 35" fill="none" xmlns="http://www.w3.org/2000/svg">
<g clip-path="url(#clip0_1292_5824)">
<path d="M16.2297 6.78698C14.7627 6.78698 13.5657 5.58998 13.5657 4.12298C13.5657 2.65598 14.7627 1.45898 16.2297 1.45898H30.3687C31.8357 1.45898 33.0327 2.65598 33.0327 4.12298C33.0327 5.58998 31.8357 6.78698 30.3687 6.78698H16.2297Z" fill="white"/>
<path d="M30.3776 2.35859C31.3496 2.35859 32.1416 3.15059 32.1416 4.12259C32.1416 5.09459 31.3496 5.88659 30.3776 5.88659H16.2386C15.2666 5.88659 14.4746 5.09459 14.4746 4.12259C14.4746 3.15059 15.2666 2.35859 16.2386 2.35859H30.3776ZM30.3776 0.558594H16.2386C14.2766 0.558594 12.6746 2.16059 12.6746 4.12259C12.6746 6.08459 14.2766 7.68659 16.2386 7.68659H30.3776C32.3396 7.68659 33.9416 6.08459 33.9416 4.12259C33.9416 2.16059 32.3396 0.558594 30.3776 0.558594Z" fill="#646569"/>
<path d="M2.64868 34.4715C2.02768 34.4715 1.52368 33.982 1.52368 33.3789V20.1621H45.0837V33.3789C45.0837 33.982 44.5797 34.4715 43.9587 34.4715H2.64868Z" fill="#646569"/>
<path d="M44.7236 20.5109V33.378C44.7236 33.7888 44.3816 34.121 43.9586 34.121H2.64857C2.22557 34.121 1.88357 33.7888 1.88357 33.378V20.5109H44.7236ZM45.4346 19.8203H1.16357V33.3867C1.16357 34.1822 1.82957 34.8203 2.63957 34.8203H43.9586C44.7776 34.8203 45.4346 34.1735 45.4346 33.3867V19.8203Z" fill="#646569"/>
<path d="M2.70241 17.4168C1.93741 17.4168 1.31641 16.7958 1.31641 16.0308V4.31278C1.31641 4.09678 1.48741 3.92578 1.70341 3.92578H44.9124C45.1284 3.92578 45.2994 4.09678 45.2994 4.31278V15.9048C45.2994 16.7328 44.6244 17.4078 43.7964 17.4078H2.70241V17.4168Z" fill="#646569"/>
<path d="M44.7775 4.44711V15.9131C44.7775 16.4621 44.3365 16.9031 43.7875 16.9031H2.70247C2.22547 16.9031 1.82947 16.5071 1.82947 16.0301V4.44711H44.7775ZM44.9035 3.42111H1.70347C1.20847 3.42111 0.803467 3.82611 0.803467 4.32111V16.0301C0.803467 17.0831 1.65847 17.9291 2.70247 17.9291H43.7875C44.9035 17.9291 45.8035 17.0291 45.8035 15.9131V4.31211C45.8035 3.81711 45.3985 3.41211 44.9035 3.41211V3.42111Z" fill="#646569"/>
<path d="M12.9175 16.8125H12.4225C11.8906 16.8125 11.4595 17.2436 11.4595 17.7755V22.3655C11.4595 22.8974 11.8906 23.3285 12.4225 23.3285H12.9175C13.4493 23.3285 13.8805 22.8974 13.8805 22.3655V17.7755C13.8805 17.2436 13.4493 16.8125 12.9175 16.8125Z" fill="#A3D541" stroke="#A3D541" stroke-width="0.62" stroke-miterlimit="10"/>
<path d="M34.1846 16.8125H33.6896C33.1577 16.8125 32.7266 17.2436 32.7266 17.7755V22.3655C32.7266 22.8974 33.1577 23.3285 33.6896 23.3285H34.1846C34.7164 23.3285 35.1476 22.8974 35.1476 22.3655V17.7755C35.1476 17.2436 34.7164 16.8125 34.1846 16.8125Z" fill="#A3D541" stroke="#A3D541" stroke-width="0.62" stroke-miterlimit="10"/>
<path d="M36.0654 16.7402H31.8174C31.3502 16.7402 30.9714 17.119 30.9714 17.5862V18.9902C30.9714 19.4575 31.3502 19.8362 31.8174 19.8362H36.0654C36.5327 19.8362 36.9114 19.4575 36.9114 18.9902V17.5862C36.9114 17.119 36.5327 16.7402 36.0654 16.7402Z" fill="#C7DDFD" stroke="#C7DDFD" stroke-width="0.51" stroke-miterlimit="10"/>
<path d="M14.7896 16.7402H10.5416C10.0743 16.7402 9.69556 17.119 9.69556 17.5862V18.9902C9.69556 19.4575 10.0743 19.8362 10.5416 19.8362H14.7896C15.2568 19.8362 15.6356 19.4575 15.6356 18.9902V17.5862C15.6356 17.119 15.2568 16.7402 14.7896 16.7402Z" fill="#C7DDFD" stroke="#C7DDFD" stroke-width="0.51" stroke-miterlimit="10"/>
</g>
<defs>
<clipPath id="clip0_1292_5824">
<rect width="45" height="33.705" fill="white" transform="translate(0.803467 0.558594)"/>
</clipPath>
</defs>
</svg>
