<svg width="11" height="12" viewBox="0 0 11 12" fill="none" xmlns="http://www.w3.org/2000/svg">
<path d="M1.0322 11.3328C0.936203 11.3328 0.856203 11.3008 0.792203 11.2368C0.728203 11.1728 0.696203 11.0928 0.696203 10.9968C0.696203 10.9648 0.701536 10.9328 0.712203 10.9008C0.72287 10.8688 0.733536 10.8368 0.744203 10.8048L4.3282 5.62076L0.968203 0.660763C0.936203 0.596763 0.920203 0.532763 0.920203 0.468763C0.920203 0.372763 0.952203 0.292763 1.0162 0.228764C1.0802 0.164763 1.15487 0.132763 1.2402 0.132763H2.8882C3.0162 0.132763 3.11754 0.164763 3.1922 0.228764C3.26687 0.292763 3.33087 0.362096 3.3842 0.436763L5.7362 3.89276L8.1042 0.436763C8.14687 0.362096 8.20554 0.292763 8.2802 0.228764C8.36554 0.164763 8.4722 0.132763 8.6002 0.132763H10.1522C10.2482 0.132763 10.3282 0.164763 10.3922 0.228764C10.4562 0.292763 10.4882 0.372763 10.4882 0.468763C10.4882 0.532763 10.4669 0.596763 10.4242 0.660763L7.0802 5.62076L10.6642 10.8048C10.6855 10.8368 10.7015 10.8688 10.7122 10.9008C10.7229 10.9328 10.7282 10.9648 10.7282 10.9968C10.7282 11.0928 10.6909 11.1728 10.6162 11.2368C10.5522 11.3008 10.4775 11.3328 10.3922 11.3328H8.6962C8.5682 11.3328 8.46687 11.3008 8.3922 11.2368C8.31754 11.1728 8.25887 11.1088 8.2162 11.0448L5.6562 7.42876L3.1442 11.0448C3.10154 11.1088 3.04287 11.1728 2.9682 11.2368C2.89354 11.3008 2.78687 11.3328 2.6482 11.3328H1.0322Z" fill="#191A38"/>
</svg>
