<svg width="35" height="53" viewBox="0 0 35 53" fill="none" xmlns="http://www.w3.org/2000/svg">
<g clip-path="url(#clip0_1292_5802)">
<path d="M32.6185 21.5012C35.7185 30.7712 26.3984 39.3212 18.7284 39.3212C11.0584 39.3212 2.17845 30.9312 4.83845 21.5012C8.56845 8.27121 13.1384 0.951214 19.4284 1.38121C24.6684 1.73121 27.9485 7.53121 32.6185 21.5012Z" fill="#EBF3FF" stroke="#C7DDFD" stroke-width="2" stroke-miterlimit="10"/>
<path d="M19.1785 50.2012H14.7485C14.152 50.2012 13.6685 50.6847 13.6685 51.2812C13.6685 51.8776 14.152 52.3612 14.7485 52.3612H19.1785C19.7749 52.3612 20.2585 51.8776 20.2585 51.2812C20.2585 50.6847 19.7749 50.2012 19.1785 50.2012Z" fill="#8E8F90"/>
<path d="M21.0483 47.1914H12.8783C12.2819 47.1914 11.7983 47.6749 11.7983 48.2714C11.7983 48.8679 12.2819 49.3514 12.8783 49.3514H21.0483C21.6448 49.3514 22.1283 48.8679 22.1283 48.2714C22.1283 47.6749 21.6448 47.1914 21.0483 47.1914Z" fill="#8E8F90"/>
<path d="M23.9284 44.1914H9.98845C9.39198 44.1914 8.90845 44.6749 8.90845 45.2714C8.90845 45.8679 9.39198 46.3514 9.98845 46.3514H23.9284C24.5249 46.3514 25.0084 45.8679 25.0084 45.2714C25.0084 44.6749 24.5249 44.1914 23.9284 44.1914Z" fill="#8E8F90"/>
<path d="M30.7884 22.6321C33.8884 31.9021 24.5684 40.4521 16.8984 40.4521C9.22837 40.4521 0.34837 32.0621 3.00837 22.6321C6.73837 9.40207 11.3084 2.08207 17.5984 2.51207C22.8384 2.86207 26.1184 8.66207 30.7884 22.6321Z" stroke="#646569" stroke-width="2" stroke-miterlimit="10"/>
<path d="M15.9185 24.5416C15.6085 26.7816 15.2985 29.0216 14.9985 31.2616C14.9785 31.4116 15.1485 31.4916 15.2285 31.3616C16.2885 29.6149 17.9018 27.1482 20.0685 23.9616C20.9885 22.6116 20.9785 22.5916 20.7785 22.6216C16.4985 23.4216 16.2585 23.3416 16.2585 23.3416C17.4685 21.6016 18.6385 20.1516 20.2785 18.1816C21.4085 16.8216 21.4485 16.8316 20.9485 16.8416C19.2985 16.8816 17.8185 16.8716 15.8385 16.9716C15.7585 16.9716 15.6985 17.0116 15.6785 17.1016C15.2585 19.4916 14.7785 22.2616 14.3585 24.6516C14.3485 24.7316 14.3185 24.8216 14.3885 24.8016C14.8985 24.6916 15.4885 24.5916 15.9285 24.5216L15.9185 24.5416Z" fill="#646569"/>
<path d="M16.0485 39.8214C19.1885 43.4914 13.6685 46.1514 8.35852 44.2514C4.43852 42.8514 3.97852 42.5614 0.668521 34.7814C-0.311479 32.4814 0.918521 33.1414 9.53852 34.9614C13.3885 35.7714 13.4885 36.8114 16.0585 39.8114L16.0485 39.8214Z" fill="#A3D541"/>
<path d="M17.8484 39.8214C14.8084 43.4914 20.1584 46.1514 25.3084 44.2514C29.1084 42.8514 29.5584 42.5614 32.7684 34.7814C33.7184 32.4814 32.5284 33.1414 24.1684 34.9614C20.4384 35.7714 20.3384 36.8114 17.8484 39.8114V39.8214Z" fill="#A3D541"/>
<mask id="mask0_1292_5802" style="mask-type:luminance" maskUnits="userSpaceOnUse" x="4" y="35" width="11" height="8">
<path d="M14.7685 35.832H4.22852V42.362H14.7685V35.832Z" fill="white"/>
</mask>
<g mask="url(#mask0_1292_5802)">
<path d="M14.3585 41.4911C12.7185 41.3911 11.0385 41.2611 9.32849 40.1911C7.67849 39.1611 6.20849 37.5411 4.79849 35.9911C4.39849 35.5611 3.98849 36.0811 4.38849 36.5111C5.87849 38.1411 7.41849 39.8211 9.15849 40.9211C10.9785 42.0711 12.7385 42.2511 14.4885 42.3611C14.9285 42.3911 14.8085 41.5211 14.3585 41.4911Z" fill="white"/>
</g>
<mask id="mask1_1292_5802" style="mask-type:luminance" maskUnits="userSpaceOnUse" x="19" y="35" width="11" height="8">
<path d="M29.6984 35.832H19.1584V42.362H29.6984V35.832Z" fill="white"/>
</mask>
<g mask="url(#mask1_1292_5802)">
<path d="M19.5683 41.4911C21.2083 41.3911 22.8883 41.2611 24.5983 40.1911C26.2483 39.1611 27.7183 37.5411 29.1283 35.9911C29.5283 35.5611 29.9383 36.0811 29.5383 36.5111C28.0483 38.1411 26.5083 39.8211 24.7683 40.9211C22.9483 42.0711 21.1883 42.2511 19.4383 42.3611C18.9983 42.3911 19.1183 41.5211 19.5683 41.4911Z" fill="white"/>
</g>
</g>
<defs>
<clipPath id="clip0_1292_5802">
<rect width="33.85" height="52" fill="white" transform="translate(0.378418 0.361328)"/>
</clipPath>
</defs>
</svg>
