<svg width="222" height="51" viewBox="0 0 222 51" fill="none" xmlns="http://www.w3.org/2000/svg">
<path fill-rule="evenodd" clip-rule="evenodd" d="M76.9474 5.12345C77.3635 5.05278 77.8189 4.98212 78.2979 4.9193C78.7768 4.85649 79.2636 4.80153 79.7426 4.77012C80.2216 4.73086 80.6927 4.70731 81.1481 4.68375C81.6035 4.66805 82.0196 4.65234 82.4044 4.65234C83.2995 4.65234 84.171 4.73871 85.0347 4.91145C85.8984 5.08419 86.6679 5.38256 87.351 5.80655C88.0341 6.23055 88.5758 6.80373 88.9841 7.51824C89.3924 8.2406 89.5966 9.12785 89.5966 10.2035C89.5966 10.9966 89.518 11.6797 89.361 12.2607C89.204 12.8417 88.992 13.3521 88.7172 13.7918C88.4424 14.2315 88.1126 14.6162 87.72 14.9381C87.3274 15.2601 86.9034 15.5506 86.448 15.8097L91.057 24.266H86.7464L82.899 16.6891H80.6613V24.266H76.9238V5.12345H76.9474ZM82.7498 7.79305C82.3887 7.79305 82.0353 7.8009 81.682 7.8166C81.3287 7.83231 81.0617 7.87156 80.8733 7.91868V13.2814H82.263C83.2445 13.2814 84.0375 13.0537 84.6578 12.5905C85.2781 12.1272 85.5843 11.3734 85.5843 10.3213C85.5843 9.52829 85.3409 8.908 84.862 8.46045C84.383 8.0129 83.6763 7.7852 82.7498 7.7852V7.79305ZM93.4361 21.9576H98.2178V14.043H93.4361V10.9338H101.759V21.9576H106.784V25.0669H93.4361V21.9576ZM97.362 6.63884C97.362 6.08922 97.5661 5.61811 97.9665 5.23337C98.367 4.84079 98.9323 4.65234 99.6468 4.65234C100.361 4.65234 100.974 4.84864 101.413 5.23337C101.853 5.62596 102.073 6.08922 102.073 6.63884C102.073 7.18846 101.853 7.66742 101.413 8.0286C100.974 8.38978 100.385 8.57037 99.6468 8.57037C98.9088 8.57037 98.367 8.38978 97.9665 8.0286C97.5661 7.66742 97.362 7.20417 97.362 6.63884ZM122.488 24.5801C122.488 25.593 122.323 26.4802 121.977 27.234C121.64 27.9878 121.176 28.6081 120.58 29.1106C119.983 29.6052 119.284 29.9743 118.467 30.2098C117.651 30.4454 116.764 30.5631 115.798 30.5631C115.138 30.5631 114.526 30.5082 113.945 30.4061C113.372 30.304 112.838 30.1627 112.359 29.9978C111.872 29.8251 111.448 29.6445 111.087 29.4482C110.726 29.2519 110.427 29.0556 110.207 28.8672L111.581 26.2761C112.021 26.5745 112.547 26.865 113.16 27.1398C113.772 27.4146 114.542 27.5481 115.476 27.5481C116.63 27.5481 117.502 27.2733 118.106 26.7315C118.711 26.1897 119.009 25.4045 119.009 24.3917V23.4887H118.899C118.57 23.9363 118.083 24.2739 117.447 24.4859C116.803 24.7057 116.065 24.8078 115.225 24.8078C114.385 24.8078 113.537 24.6665 112.799 24.3838C112.06 24.1012 111.417 23.6772 110.867 23.104C110.317 22.5308 109.893 21.8006 109.595 20.9212C109.297 20.0339 109.14 19.0054 109.14 17.8197C109.14 16.6341 109.32 15.4799 109.674 14.522C110.027 13.5641 110.529 12.7632 111.181 12.1115C111.833 11.4598 112.61 10.973 113.513 10.6432C114.416 10.3135 115.429 10.1486 116.544 10.1486C117.125 10.1486 117.714 10.1721 118.295 10.2192C118.884 10.2664 119.433 10.3292 119.951 10.3998C120.47 10.4783 120.949 10.5647 121.388 10.6668C121.828 10.7689 122.189 10.8788 122.488 10.9887V24.5801ZM116.245 21.9184C116.96 21.9184 117.604 21.7613 118.177 21.4394C118.75 21.1175 119.143 20.6385 119.347 20.0025V13.6505C119.08 13.5405 118.711 13.4463 118.232 13.3835C117.753 13.3207 117.298 13.2814 116.866 13.2814C116.34 13.2814 115.845 13.3678 115.39 13.5327C114.926 13.7054 114.526 13.9724 114.18 14.3336C113.835 14.7026 113.56 15.158 113.364 15.7155C113.168 16.2729 113.065 16.9325 113.065 17.702C113.065 18.3772 113.152 18.9818 113.317 19.5079C113.482 20.0339 113.717 20.4736 114.023 20.8348C114.322 21.196 114.659 21.463 115.036 21.6357C115.413 21.8163 115.814 21.9027 116.245 21.9027V21.9184ZM126.578 11.4049C127.324 11.0594 128.188 10.761 129.169 10.5098C130.151 10.2585 131.313 10.1329 132.663 10.1329C133.637 10.1329 134.462 10.2506 135.145 10.4941C135.828 10.7375 136.377 11.0751 136.801 11.5148C137.225 11.9545 137.524 12.4805 137.712 13.1008C137.901 13.7133 137.995 14.4042 137.995 15.1737C137.995 16.1552 137.963 16.9875 137.901 17.6784C137.838 18.3694 137.806 18.9818 137.806 19.5236C137.806 19.924 137.822 20.3794 137.861 20.8741C137.901 21.141 137.924 21.4001 137.948 21.6514H139.769V24.8157H135.113L134.752 22.8606H134.611C134.234 23.4573 133.708 23.9677 133.009 24.3995C132.318 24.8314 131.384 25.0512 130.206 25.0512C128.8 25.0512 127.693 24.6665 126.869 23.897C126.044 23.1275 125.636 22.1147 125.636 20.8427C125.636 20.0339 125.777 19.343 126.068 18.7541C126.358 18.1652 126.775 17.6863 127.332 17.3172C127.882 16.9403 128.549 16.6655 129.326 16.4849C130.104 16.3044 130.967 16.2101 131.918 16.2101C132.255 16.2101 132.608 16.2258 132.985 16.2651C133.362 16.3044 133.818 16.3436 134.359 16.3829C134.399 16.1944 134.414 15.9981 134.414 15.8097V15.2601C134.414 14.5299 134.21 14.0038 133.794 13.6897C133.378 13.3756 132.773 13.2108 131.973 13.2108C131.022 13.2108 130.159 13.3364 129.389 13.5876C128.62 13.8389 127.976 14.0902 127.458 14.3336L126.586 11.397L126.578 11.4049ZM131.431 21.9184C132.279 21.9184 132.915 21.7692 133.339 21.4708C133.763 21.1724 134.069 20.8505 134.265 20.505V18.9582C134.085 18.9268 133.826 18.8876 133.472 18.8405C133.119 18.8012 132.742 18.7777 132.334 18.7777C131.996 18.7777 131.666 18.8091 131.329 18.864C130.991 18.919 130.693 19.0211 130.426 19.1467C130.159 19.2723 129.947 19.4451 129.79 19.6492C129.633 19.8533 129.554 20.1046 129.554 20.3951C129.554 20.8741 129.695 21.251 129.994 21.5179C130.292 21.7849 130.763 21.9184 131.439 21.9184H131.431Z" fill="black"/>
<path fill-rule="evenodd" clip-rule="evenodd" d="M51.3663 24.8393H43.5538L41.4495 32.9187H37.7278L39.8321 24.8393H34.5479L35.3016 21.7378H40.6408L42.3132 15.3936H37.2489L38.0026 12.2921H43.122L45.1713 4.64453H48.893L46.8437 12.2921H54.6562L56.7055 4.64453H60.4272L58.3779 12.2921H63.6072L62.7435 15.3936H57.5692L55.8968 21.7378H60.9062L60.0425 24.8393H55.0802L52.9759 32.9187H49.2542L51.3585 24.8393H51.3663ZM44.3625 21.8556H52.2143L53.7847 15.2444H45.9329L44.3625 21.8556Z" fill="black"/>
<path fill-rule="evenodd" clip-rule="evenodd" d="M3.13285 35.5805L0 30.4769L19.9984 18.2909L0 5.83021L3.13285 0.726562L28.7924 17.1603V19.9948L3.13285 35.5805ZM35.278 43.3459H59.6734V49.4075H35.278V43.3459Z" fill="black"/>
<path fill-rule="evenodd" clip-rule="evenodd" d="M78.6747 47.2878H81.7918V33.9947H79.1693V37.3474H76.1621V30.9483H91.1354V37.3474H88.1282V33.9947H85.5293V47.2878H88.615V50.3342H78.6668V47.2878H78.6747ZM106.438 48.866C106.203 49.0858 105.897 49.3057 105.52 49.5177C105.143 49.7297 104.711 49.926 104.209 50.1144C103.706 50.3028 103.156 50.4442 102.56 50.5541C101.955 50.664 101.319 50.719 100.644 50.719C99.474 50.719 98.4375 50.5541 97.511 50.2243C96.5924 49.8945 95.8151 49.4077 95.1791 48.7717C94.5431 48.1357 94.0563 47.3663 93.7186 46.4712C93.381 45.5761 93.2161 44.5553 93.2161 43.409C93.2161 42.192 93.4046 41.1241 93.7893 40.2133C94.174 39.3025 94.6923 38.5409 95.3597 37.9285C96.0271 37.316 96.8044 36.8606 97.6995 36.5544C98.5946 36.2482 99.5603 36.099 100.597 36.099C101.288 36.099 102.002 36.1932 102.74 36.3738C103.478 36.5623 104.154 36.8763 104.774 37.3317C105.394 37.7871 105.897 38.3917 106.289 39.1455C106.682 39.8993 106.878 40.865 106.878 42.0271C106.878 42.8201 106.784 43.676 106.603 44.6025H96.7651C96.7808 45.1913 96.9065 45.6939 97.1342 46.0943C97.3619 46.4947 97.6602 46.8324 98.0371 47.0915C98.4061 47.3506 98.838 47.539 99.3169 47.6568C99.8038 47.7746 100.314 47.8374 100.864 47.8374C101.955 47.8374 102.858 47.7118 103.557 47.4526C104.256 47.1935 104.829 46.8795 105.269 46.5104L106.446 48.866H106.438ZM100.534 38.9806C100.063 38.9806 99.6153 39.0434 99.1913 39.1769C98.7752 39.3025 98.3983 39.4988 98.0607 39.7422C97.723 39.9935 97.4482 40.2997 97.2284 40.6687C97.0085 41.0378 96.8829 41.4539 96.8436 41.9172H103.565C103.565 41.0142 103.313 40.2997 102.811 39.7736C102.308 39.2476 101.547 38.9806 100.526 38.9806H100.534ZM123.155 49.0073C122.409 49.5805 121.53 50.0123 120.532 50.295C119.527 50.5776 118.483 50.7268 117.392 50.7268C116.206 50.7268 115.154 50.5541 114.235 50.2008C113.317 49.8474 112.539 49.3528 111.911 48.7168C111.283 48.0808 110.804 47.3113 110.474 46.4084C110.145 45.5054 109.98 44.5082 109.98 43.4168C109.98 42.2548 110.168 41.2183 110.553 40.3154C110.938 39.4124 111.471 38.643 112.155 38.0148C112.838 37.3867 113.646 36.9156 114.573 36.5858C115.499 36.2639 116.512 36.099 117.604 36.099C118.624 36.099 119.582 36.2168 120.47 36.4602C121.365 36.7036 122.048 36.9313 122.519 37.1511V42.0271H119.512V39.4831C118.946 39.3575 118.381 39.2868 117.816 39.2868C117.305 39.2868 116.803 39.3653 116.3 39.5224C115.798 39.6794 115.35 39.9307 114.958 40.2683C114.565 40.6059 114.251 41.0378 114 41.556C113.756 42.0742 113.631 42.6945 113.631 43.409C113.631 43.9979 113.733 44.5475 113.929 45.0422C114.133 45.5368 114.416 45.9765 114.777 46.3455C115.138 46.7146 115.594 47.0051 116.128 47.2171C116.661 47.4291 117.258 47.539 117.918 47.539C118.954 47.539 119.81 47.3898 120.47 47.0993C121.137 46.801 121.632 46.5418 121.961 46.322L123.139 49.0073H123.155ZM124.631 30.9561H130.151V38.0462H130.261C130.7 37.4574 131.281 36.9863 132.012 36.6329C132.742 36.2796 133.598 36.1069 134.579 36.1069C135.27 36.1069 135.906 36.2011 136.495 36.3817C137.076 36.5701 137.579 36.8685 137.995 37.2925C138.411 37.7165 138.741 38.2975 138.976 39.0199C139.212 39.7501 139.33 40.6452 139.33 41.7209V50.3342H135.781V42.4746C135.781 41.3518 135.545 40.5352 135.074 40.0406C134.603 39.5459 133.982 39.2947 133.213 39.2947C132.538 39.2947 131.917 39.4988 131.352 39.915C130.787 40.3311 130.386 40.8572 130.151 41.5089V50.3421H126.602V34.0026H124.639V30.9561H124.631ZM149.851 40.229H156.384V48.9759C155.763 49.5491 154.955 49.9809 153.965 50.2793C152.976 50.5776 151.955 50.719 150.919 50.719C149.702 50.719 148.555 50.507 147.487 50.083C146.42 49.659 145.501 49.0151 144.716 48.1593C143.931 47.3035 143.31 46.2435 142.855 44.9715C142.4 43.7074 142.172 42.2234 142.172 40.5274C142.172 38.7372 142.447 37.214 142.988 35.9577C143.538 34.7014 144.245 33.6728 145.108 32.8719C145.972 32.0711 146.946 31.4822 148.021 31.1131C149.097 30.7441 150.165 30.5557 151.217 30.5557C152.269 30.5557 153.219 30.642 153.949 30.8148C154.68 30.9875 155.339 31.2152 155.944 31.49V37.2218H152.937V34.1518L152.497 34.0418C152.136 33.9712 151.727 33.9319 151.296 33.9319C150.55 33.9319 149.859 34.0575 149.215 34.3167C148.579 34.5758 148.029 34.9762 147.566 35.518C147.103 36.0597 146.742 36.7586 146.482 37.6065C146.231 38.4545 146.098 39.4674 146.098 40.653C146.098 41.7052 146.223 42.6474 146.482 43.4797C146.734 44.3119 147.095 45.0108 147.55 45.5839C148.006 46.1571 148.547 46.589 149.176 46.8873C149.804 47.1857 150.479 47.327 151.209 47.327C151.68 47.327 152.112 47.2721 152.505 47.1621C152.897 47.0522 153.164 46.9423 153.313 46.8324V42.985H149.843V40.2133L149.851 40.229ZM159.03 47.2878H163.835V39.5381H159.03V36.4916H167.392V47.2878H172.448V50.3342H159.03V47.2878ZM163.183 32.7227C163.183 32.1496 163.395 31.6628 163.811 31.2545C164.227 30.8462 164.816 30.642 165.562 30.642C166.308 30.642 166.936 30.8462 167.392 31.2545C167.847 31.6628 168.075 32.1496 168.075 32.7227C168.075 33.2959 167.847 33.7984 167.392 34.1753C166.936 34.5522 166.324 34.7406 165.562 34.7406C164.801 34.7406 164.235 34.5522 163.811 34.1753C163.395 33.7984 163.183 33.3116 163.183 32.7227ZM174.874 47.2878H178.266V39.5381H174.874V36.4916H181.022L181.431 38.3211H181.541C182.051 37.7086 182.632 37.2061 183.292 36.7978C183.943 36.3895 184.713 36.1854 185.584 36.1854C186.676 36.1854 187.539 36.5937 188.167 37.4024C188.796 38.2111 189.11 39.5695 189.11 41.4696H185.914C185.914 40.8022 185.82 40.3233 185.631 40.017C185.443 39.7108 185.137 39.5616 184.713 39.5616C183.982 39.5616 183.394 39.7501 182.954 40.1191C182.506 40.4881 182.129 40.9121 181.815 41.3911V47.2878H187.743V50.3342H174.874V47.2878ZM192.58 30.9483H198.398V43.7388C198.398 45.1599 198.571 46.1493 198.917 46.6989C199.262 47.2564 199.819 47.5312 200.581 47.5312C201.146 47.5312 201.61 47.4684 201.979 47.3506C202.34 47.2328 202.709 47.0601 203.07 46.8402L204.405 49.3292C204.099 49.5334 203.785 49.7218 203.478 49.8945C203.172 50.0673 202.842 50.2165 202.497 50.3342C202.151 50.452 201.775 50.5462 201.366 50.6091C200.958 50.6719 200.495 50.7033 199.984 50.7033C198.273 50.7033 196.985 50.2636 196.129 49.3763C195.273 48.4891 194.841 47.2328 194.841 45.6075V33.979H192.572V30.9325L192.58 30.9483ZM217.58 46.5104C217.58 46.1414 217.352 45.843 216.913 45.6232C216.465 45.4033 215.916 45.1992 215.256 45.0108C214.596 44.8223 213.882 44.6339 213.097 44.4454C212.312 44.2491 211.597 43.9822 210.938 43.6445C210.278 43.3069 209.728 42.8672 209.281 42.3412C208.833 41.8151 208.613 41.1398 208.613 40.3075C208.613 39.6244 208.763 39.0277 209.061 38.5095C209.359 37.9913 209.768 37.5516 210.294 37.1904C210.812 36.8292 211.432 36.5544 212.155 36.3738C212.877 36.1854 213.654 36.099 214.494 36.099C215.389 36.099 216.175 36.1618 216.842 36.2953C217.517 36.4209 218.106 36.578 218.601 36.7664C219.103 36.9548 219.527 37.159 219.889 37.3867C220.242 37.6144 220.548 37.8264 220.807 38.007L219.308 40.4724C219.033 40.3075 218.719 40.1348 218.365 39.9621C218.012 39.7893 217.635 39.6244 217.243 39.4753C216.85 39.3261 216.442 39.2083 216.01 39.1141C215.578 39.0199 215.162 38.9727 214.738 38.9727C213.976 38.9727 213.356 39.0748 212.877 39.279C212.406 39.4831 212.17 39.7972 212.17 40.2212C212.17 40.551 212.39 40.8179 212.838 41.0221C213.285 41.2262 213.835 41.4146 214.487 41.5874C215.146 41.7601 215.861 41.9486 216.646 42.1527C217.431 42.3569 218.145 42.616 218.805 42.9457C219.465 43.2677 220.014 43.6917 220.462 44.202C220.909 44.7202 221.129 45.3798 221.129 46.1964C221.129 47.6018 220.627 48.7011 219.614 49.502C218.601 50.3028 217.101 50.7033 215.123 50.7033C213.56 50.7033 212.202 50.4677 211.063 49.9966C209.925 49.5255 209.014 48.9759 208.315 48.3477L209.956 45.7488C210.192 45.953 210.506 46.1807 210.898 46.4241C211.291 46.6753 211.731 46.903 212.225 47.0993C212.72 47.3035 213.238 47.4762 213.796 47.6097C214.353 47.751 214.903 47.8138 215.452 47.8138C216.033 47.8138 216.536 47.7118 216.952 47.5076C217.368 47.3035 217.58 46.9658 217.58 46.4869V46.5104Z" fill="black"/>
</svg>
